<svg id="Layer_1" data-name="Layer 1" xmlns="http://www.w3.org/2000/svg" viewBox="0 0 55 71.08"><defs><style>.cls-1{fill:#0b0707;}.cls-2{fill:#4b656e;}.cls-3{fill:#c21110;}.cls-4{fill:#750a0a;}.cls-5{fill:#8dbece;}.cls-6{fill:#f8f8f8;}</style></defs><title>amogus</title><path class="cls-1" d="M12,56V44c1.11-1,1.29-2,0-3V36a15.2,15.2,0,0,0,1.81-3.24c1.14-4.14,3.63-6.55,8-7a21.49,21.49,0,0,0,2.73-.59C25.36,21.68,26,18.25,27,14.95c1.54-5.06,5.11-8.18,10.35-8.77A29.72,29.72,0,0,1,51.07,7.49C55,8.93,58,11.27,59.68,15.18c.52,1.21.85,2.91,1.79,3.45C64.82,20.54,65.53,24,67,27v6c-1.84,1.48-2.18,3.46-2.14,5.71.1,6.3.39,12.62-.07,18.88a46.51,46.51,0,0,1-2.86,12.46c-1.28,3.47-5.35,4.87-9.21,4.08-3.67-.75-5.37-2.75-5.87-6.95-.15-1.27-.26-2.54-.4-3.94l-3.6-.4c0,2.21.09,4.18,0,6.13-.2,3.49-1.47,6.4-4.83,8H29c-4.28-3.27-5.58-7.82-5.16-12.78C15.93,61.42,15.93,61.42,12,56ZM60.19,22.77l-1.3-.7L55.06,21c-2.72-.23-5.47-.83-8.14-.59-4.85.43-5.65,1-5.38,5.57A12.06,12.06,0,0,0,41,28.76c.28,5.47,2.23,7.33,7.68,7.39,2.32,0,4.64,0,7-.14,5.85-.38,7.44-2.19,7.25-8.1-.05-2.16-.48-4.11-2.68-5.15ZM24.13,34.13,25,29.59c-5.57-.28-6.34.29-7.88,5.36a29.53,29.53,0,0,0-1,4.79c-.17,3.82-.16,7.66-.1,11.49.08,5.76,1.51,7.28,8.14,8.38Zm35,5.26c-4.13.24-8.26.67-12.39.65s-6.92-2.46-8.24-6.14a26.46,26.46,0,0,1-1.42-8.25C37,20.41,40,17.27,45.23,17c3.51-.2,7,0,10.82,0a7.54,7.54,0,0,0-5.8-5.7A45.8,45.8,0,0,0,40.47,10c-7-.14-9.38,1.81-10.39,8.59-.8,5.38-1.13,10.83-1.67,16.25-.15,4.47-.32,8.94-.44,13.4-.08,2.82.35,5.74-.22,8.45a24,24,0,0,0,.06,10.75c1.24,5.28,2.26,6.14,7.77,5.7,2.24-.18,3.36-1.13,3.39-3.37s0-4.66.13-7c.13-2,1.28-3.69,3.38-3.58,4,.19,8,.81,12.66,1.32l-4.89,3.18a8.38,8.38,0,0,0-.18,1.54c.26,3.53,1.44,5.22,3.84,5.6s4.83-1.55,5.82-4.45c.05-.16.11-.31.14-.47,2.08-8.51,1-17.16,1-25.76C60.89,39.89,59.73,39.64,59.11,39.38Z" transform="translate(-12 -5.92)"/><path class="cls-2" d="M12,41c1.29,1,1.11,2,0,3Z" transform="translate(-12 -5.92)"/><path class="cls-3" d="M28.42,34.8c.54-5.42.87-10.87,1.67-16.25,1-6.78,3.41-8.73,10.39-8.59a45.8,45.8,0,0,1,9.78,1.27,7.54,7.54,0,0,1,5.8,5.7c-3.78,0-7.31-.16-10.82,0-5.23.3-8.28,3.44-8.18,8.67a26.46,26.46,0,0,0,1.42,8.25C39.79,37.57,42.63,40,46.72,40s8.26-.41,12.39-.65a22,22,0,0,1-.2,4c-1.09,4.79-2.7,9.16-8.38,10.38-3.55.76-6.57-.57-9.34-2.25-5-3.06-8.35-7.69-10.6-13.13A24.82,24.82,0,0,0,28.42,34.8Z" transform="translate(-12 -5.92)"/><path class="cls-4" d="M28.42,34.8a24.82,24.82,0,0,1,2.19,3.53c2.25,5.44,5.55,10.07,10.6,13.13,2.77,1.68,5.79,3,9.34,2.25,5.68-1.22,7.28-5.59,8.38-10.38a22,22,0,0,0,.2-4c.62.25,1.78.51,1.78.76,0,8.6,1.08,17.24-1,25.76,0,.16-.09.32-.14.47-1,2.9-3.5,4.82-5.82,4.45s-3.58-2.07-3.84-5.6a8.38,8.38,0,0,1,.18-1.54l4.89-3.18c-4.69-.52-8.67-1.13-12.66-1.32-2.11-.1-3.25,1.54-3.38,3.58-.15,2.32-.11,4.65-.13,7s-1.15,3.19-3.39,3.37c-5.51.44-6.53-.42-7.77-5.7a24,24,0,0,1-.06-10.75c.57-2.71.14-5.63.22-8.45C28.1,43.74,28.27,39.27,28.42,34.8Z" transform="translate(-12 -5.92)"/><path class="cls-4" d="M24.13,34.13V59.6C17.5,58.5,16.07,57,16,51.22c-.06-3.83-.06-7.66.1-11.49a29.53,29.53,0,0,1,1-4.79Z" transform="translate(-12 -5.92)"/><path class="cls-2" d="M62.9,27.92c.19,5.91-1.39,7.72-7.25,8.1-2.31.15-4.64.16-7,.14-5.45-.06-7.4-1.92-7.68-7.39A12.06,12.06,0,0,1,41.53,26a13,13,0,0,0,9.27,3.7C54.85,29.54,58.87,28.54,62.9,27.92Z" transform="translate(-12 -5.92)"/><path class="cls-5" d="M62.9,27.92c-4,.62-8,1.63-12.09,1.75A13,13,0,0,1,41.53,26c-.27-4.56.53-5.14,5.38-5.57,2.67-.24,5.42.37,8.14.59a16.22,16.22,0,0,0-3.94.15c-1.09.31-2.62,1.05-2.88,1.93-.53,1.73.86,2.72,2.53,2.89s3.32,0,5,.18c3.79.38,3.79.42,4.49-3.38C62.42,23.8,62.85,25.76,62.9,27.92Z" transform="translate(-12 -5.92)"/><path class="cls-6" d="M60.21,22.77c-.71,3.81-.7,3.76-4.49,3.38-1.64-.16-3.32,0-5-.18s-3.05-1.16-2.53-2.89c.27-.88,1.79-1.62,2.88-1.93A16.22,16.22,0,0,1,55.06,21l3.84,1.08,1.3.7Z" transform="translate(-12 -5.92)"/><path class="cls-3" d="M24.13,34.13l-7.05.82c1.53-5.07,2.31-5.64,7.88-5.36Z" transform="translate(-12 -5.92)"/><path class="cls-5" d="M60.19,22.77l-1.3-.7Z" transform="translate(-12 -5.92)"/></svg>